<svg width="24" height="24" viewBox="0 0 24 24" fill="none" xmlns="http://www.w3.org/2000/svg">
<path d="M20.0352 3.88196C18.1234 2.02338 15.5813 0.999896 12.8776 1C12.4346 1 12.0756 1.3491 12.0756 1.7797C12.0756 2.2103 12.4347 2.55939 12.8776 2.55939C15.1529 2.55929 17.292 3.42059 18.9009 4.98466C20.51 6.54873 21.396 8.62833 21.3958 10.8403C21.3958 11.2709 21.7548 11.62 22.1979 11.62C22.6409 11.62 23 11.2709 23 10.8404C23.0001 8.21177 21.9472 5.74055 20.0352 3.88196Z" fill="white"/>
<path d="M16.7359 10.8404C16.7359 11.271 17.095 11.6201 17.5381 11.62C17.981 11.62 18.34 11.2709 18.34 10.8403C18.3398 7.91277 15.8894 5.53075 12.8777 5.53033C12.8776 5.53033 12.8778 5.53033 12.8777 5.53033C12.4348 5.53033 12.0757 5.87933 12.0756 6.30993C12.0756 6.74053 12.4346 7.08962 12.8775 7.08973C15.0049 7.09004 16.7357 8.77252 16.7359 10.8404Z" fill="white"/>
<path d="M14.9612 14.8158C13.7386 14.7542 13.1158 15.6381 12.8171 16.0627C12.567 16.4181 12.6607 16.9033 13.0263 17.1465C13.3919 17.3896 13.891 17.2985 14.1412 16.9431C14.4941 16.4415 14.6539 16.3626 14.8708 16.3726C15.565 16.4519 18.2989 18.3995 18.5727 19.0085C18.6413 19.1878 18.6388 19.3636 18.5651 19.5774C18.278 20.4056 17.8029 20.9875 17.1908 21.2603C16.6092 21.5195 15.8963 21.496 15.1294 21.1927C12.2659 20.058 9.76409 18.4746 7.69372 16.4863C7.69287 16.4855 7.69201 16.4848 7.69126 16.4839C5.6502 14.4732 4.02438 12.0443 2.85916 9.26487C2.547 8.51875 2.52283 7.82555 2.78943 7.26033C3.07005 6.66526 3.6687 6.20337 4.51984 5.92466C4.74056 5.85272 4.92108 5.85043 5.10384 5.91655C5.73254 6.18362 7.73586 8.84124 7.81671 9.50845C7.82826 9.72718 7.74645 9.8825 7.23089 10.2249C6.86515 10.4678 6.77115 10.953 7.02107 11.3085C7.27088 11.664 7.76987 11.7553 8.13571 11.5125C8.57267 11.2224 9.48166 10.6186 9.41857 9.42611C9.34906 8.18047 6.85649 4.88173 5.66549 4.45602C5.13582 4.26411 4.57866 4.26078 4.00888 4.44666C2.72687 4.86635 1.80098 5.61465 1.3313 6.61058C0.875735 7.57678 0.890172 8.69777 1.37354 9.85297C2.62058 12.8275 4.36531 15.4301 6.55919 17.5888C6.56454 17.5941 6.56999 17.5993 6.57555 17.6044C8.79457 19.7332 11.4687 21.4262 14.5244 22.637C15.1364 22.8789 15.739 23 16.3153 23C16.8579 23 17.3774 22.8927 17.8593 22.6779C18.8839 22.2214 19.6535 21.3215 20.0856 20.0744C20.2763 19.5215 20.2732 18.9801 20.0773 18.4676C19.6379 17.3067 16.2446 14.8836 14.9612 14.8158Z" fill="white"/>
</svg>
