<svg width="24" height="24" viewBox="0 0 24 24" fill="none" xmlns="http://www.w3.org/2000/svg">
<path d="M19.1777 2.9731C17.2605 1.05586 14.7114 0 12 0C9.2887 0 6.73953 1.05586 4.82234 2.9731C2.9051 4.89038 1.84924 7.43945 1.84924 10.1508C1.84924 15.6357 7.03541 20.1978 9.82162 22.6487C10.2088 22.9893 10.5432 23.2835 10.8096 23.5323C11.1433 23.844 11.5717 24 12 24C12.4284 24 12.8567 23.844 13.1905 23.5323C13.4569 23.2834 13.7912 22.9893 14.1784 22.6487C16.9646 20.1978 22.1508 15.6357 22.1508 10.1508C22.1508 7.43945 21.0949 4.89038 19.1777 2.9731ZM13.2498 21.5932C12.8542 21.9412 12.5125 22.2419 12.2308 22.505C12.1013 22.6258 11.8987 22.6258 11.7692 22.505C11.4875 22.2418 11.1458 21.9412 10.7501 21.5932C8.13074 19.289 3.25503 15 3.25503 10.1508C3.25503 5.32885 7.17796 1.40592 12 1.40592C16.8219 1.40592 20.7448 5.32885 20.7448 10.1508C20.7449 15 15.8692 19.289 13.2498 21.5932Z" fill="white"/>
<path d="M12.0001 5.29398C9.53346 5.29398 7.52673 7.30065 7.52673 9.76727C7.52673 12.2339 9.53346 14.2406 12.0001 14.2406C14.4667 14.2406 16.4734 12.2339 16.4734 9.76727C16.4734 7.30065 14.4667 5.29398 12.0001 5.29398ZM12.0001 12.8346C10.3087 12.8346 8.93261 11.4586 8.93261 9.76722C8.93261 8.07587 10.3087 6.69981 12.0001 6.69981C13.6915 6.69981 15.0675 8.07587 15.0675 9.76722C15.0675 11.4586 13.6915 12.8346 12.0001 12.8346Z" fill="white"/>
</svg>
