<svg width="24" height="24" viewBox="0 0 24 24" fill="none" xmlns="http://www.w3.org/2000/svg">
<path d="M21.3524 4.4101H5.94686C4.48693 4.4101 3.29921 5.59782 3.29921 7.05775V10.8839H0.758111C0.339423 10.8839 0 11.2234 0 11.642C0 12.0607 0.339423 12.4002 0.758111 12.4002H3.29921V14.4357H2.03138C1.61269 14.4357 1.27327 14.7751 1.27327 15.1938C1.27327 15.6125 1.61269 15.9519 2.03138 15.9519H3.29916V16.9423C3.29916 18.4022 4.48688 19.5899 5.94681 19.5899H21.3524C22.8123 19.5899 24 18.4022 24 16.9423V7.0578C24 5.59787 22.8123 4.4101 21.3524 4.4101ZM5.94686 5.92637H21.3524C21.6213 5.92637 21.8684 6.02082 22.0627 6.17804L14.7046 11.5774C14.0835 12.0333 13.2158 12.0333 12.5946 11.5774L5.23651 6.17804C5.43081 6.02082 5.67798 5.92637 5.94686 5.92637ZM22.4838 16.9423C22.4838 17.5661 21.9763 18.0737 21.3524 18.0737H5.94686C5.32299 18.0737 4.81543 17.5662 4.81543 16.9423V15.9519H7.67022C8.08891 15.9519 8.42833 15.6125 8.42833 15.1938C8.42833 14.7751 8.08891 14.4357 7.67022 14.4357H4.81543V7.74972L11.6976 12.7999C12.2723 13.2216 12.9609 13.4324 13.6496 13.4324C14.3382 13.4324 15.027 13.2215 15.6016 12.7999L22.4838 7.74972L22.4838 16.9423Z" fill="white"/>
</svg>
