<svg width="40" height="40" viewBox="0 0 40 40" fill="currentColor" xmlns="http://www.w3.org/2000/svg">
<path d="M32.293 16.4375C31.4727 16.4375 30.6524 16.4375 29.8321 16.4375C27.8789 16.4375 25.9219 16.4375 23.9688 16.4375C21.6055 16.4375 19.2461 16.4375 16.8828 16.4375C14.8399 16.4375 12.8008 16.4375 10.7578 16.4375C9.76565 16.4375 8.76565 16.4063 7.77737 16.4375C7.76174 16.4375 7.75002 16.4375 7.7344 16.4375C7.9844 16.7657 8.2383 17.0977 8.4883 17.4258C8.71487 16.3633 8.94143 15.3047 9.16409 14.2422C9.49221 12.6953 9.82034 11.1524 10.1485 9.6055C10.1875 9.42971 10.2227 9.25003 10.2617 9.07425C10.2696 9.043 10.2735 9.01175 10.2813 8.9805C10.3008 8.88675 10.3203 8.793 10.3438 8.70315C10.3633 8.63284 10.3867 8.56253 10.4102 8.49221C10.4219 8.45706 10.4336 8.4219 10.4492 8.39065C10.5039 8.24221 10.3789 8.53128 10.4531 8.37503C10.5156 8.24612 10.5781 8.12112 10.6563 8.00393C10.6836 7.96096 10.7305 7.8594 10.7735 7.83206C10.7031 7.87112 10.6875 7.93362 10.7461 7.87112C10.7813 7.83206 10.8125 7.793 10.8477 7.75784C10.8946 7.71096 10.9414 7.66409 10.9922 7.61721C10.9844 7.62112 11.0664 7.55081 11.0703 7.55081C11.0821 7.56253 10.9297 7.64846 11.0313 7.58206C11.0938 7.543 11.1563 7.50003 11.2188 7.46096C11.2461 7.44534 11.2774 7.42971 11.3047 7.41409C11.4492 7.33596 11.2969 7.43753 11.2774 7.4219C11.2852 7.42971 11.6524 7.31253 11.6914 7.30081C11.793 7.26956 11.5313 7.31253 11.6367 7.30471C11.6797 7.30081 11.7227 7.2969 11.7696 7.293C11.8047 7.293 11.8438 7.28909 11.8789 7.28909C11.8946 7.28909 11.9102 7.28909 11.9258 7.28909C12.7735 7.28518 13.6211 7.28909 14.4688 7.28909C16.1016 7.28909 17.7305 7.28909 19.3633 7.28909C21.086 7.28909 22.8086 7.28909 24.5313 7.28909C25.6367 7.28909 26.7383 7.28909 27.8438 7.28909C27.9375 7.28909 28.0352 7.28909 28.1289 7.28909C28.1446 7.28909 28.1563 7.28909 28.1719 7.28909C28.2266 7.28909 28.2774 7.28909 28.3321 7.293C28.3672 7.2969 28.4024 7.30471 28.4375 7.30471C28.4141 7.30471 28.2539 7.26956 28.3828 7.30081C28.4492 7.31643 28.5156 7.32815 28.5781 7.34768C28.6094 7.3555 28.6406 7.37112 28.6719 7.37893C28.836 7.42581 28.5196 7.2969 28.668 7.37503C28.7852 7.43362 28.8985 7.50003 29.0078 7.57425C29.1289 7.65628 28.9649 7.5469 28.9688 7.543C28.9688 7.543 29.0352 7.59768 29.043 7.6094C29.1055 7.66409 29.1641 7.72268 29.2188 7.78518C29.2422 7.80862 29.2617 7.83596 29.2852 7.86331C29.3828 7.97268 29.2617 7.82425 29.2578 7.82425C29.2969 7.83596 29.3711 7.9844 29.3906 8.01565C29.4766 8.15237 29.5469 8.293 29.6172 8.44143C29.6641 8.53909 29.5664 8.30471 29.6016 8.40628C29.6133 8.44143 29.6289 8.47659 29.6406 8.51175C29.6641 8.58206 29.6875 8.65237 29.711 8.72659C29.7344 8.80862 29.7578 8.89456 29.7774 8.9805C29.7852 9.01565 29.793 9.0469 29.7969 9.08206C30.0664 10.3789 30.336 11.6758 30.6094 12.9727C30.9024 14.375 31.1953 15.7774 31.4883 17.1797C31.5039 17.2617 31.5235 17.3438 31.5391 17.4258C31.6211 17.8282 32.1172 18.0938 32.5 17.9727C32.9219 17.836 33.1367 17.4414 33.0469 17.0117C32.8203 15.9258 32.5938 14.8399 32.3672 13.7539C32.043 12.2071 31.7227 10.6602 31.3985 9.1094C31.2774 8.53909 31.1524 7.99221 30.8789 7.46487C30.3399 6.42971 29.3242 5.73831 28.1446 5.7344C27.3125 5.7305 26.4766 5.7344 25.6446 5.7344C23.9922 5.7344 22.3438 5.7344 20.6914 5.7344C18.9531 5.7344 17.211 5.7344 15.4727 5.7344C14.3711 5.7344 13.2696 5.7344 12.1719 5.7344C11.6133 5.7344 11.0821 5.7969 10.5664 6.0469C9.55862 6.53128 8.98049 7.57425 8.75784 8.63284C8.4883 9.918 8.21096 11.1992 7.93752 12.4844C7.63284 13.9102 7.33205 15.3399 7.02737 16.7657C7.01174 16.8477 6.99221 16.9297 6.97659 17.0117C6.87112 17.5039 7.19924 18 7.73049 18C8.5508 18 9.37112 18 10.1914 18C12.1446 18 14.1016 18 16.0547 18C18.418 18 20.7774 18 23.1406 18C25.1836 18 27.2227 18 29.2656 18C30.2578 18 31.2539 18.0196 32.2461 18C32.2617 18 32.2735 18 32.2891 18C32.6992 18 33.0899 17.6407 33.0703 17.2188C33.0547 16.793 32.7305 16.4375 32.293 16.4375Z" fill="currentColor"/>
<path d="M13.1367 22.8242C13.1367 22.8789 13.1367 22.9336 13.1328 22.9844C13.1328 23.0039 13.1289 23.0195 13.1289 23.0391C13.1211 23.125 13.1211 23.1094 13.1367 22.9883C13.1523 22.9922 13.0703 23.2656 13.0625 23.293C13.0586 23.3047 13.0234 23.4375 13.0117 23.4375C13.0234 23.4063 13.039 23.375 13.0507 23.3438C13.0351 23.375 13.0234 23.4063 13.0078 23.4375C12.9921 23.4688 12.8476 23.75 12.8242 23.7422C12.8281 23.7422 12.9453 23.6055 12.8359 23.7227C12.8086 23.7539 12.7812 23.7852 12.75 23.8164C12.7265 23.8438 12.5586 24.0313 12.5273 24.0196C12.5546 24 12.5781 23.9805 12.6054 23.957C12.5781 23.9766 12.5507 23.9961 12.5234 24.0156C12.4804 24.043 12.4375 24.0703 12.3945 24.0938C12.3515 24.1172 12.3046 24.1406 12.2578 24.1641C12.1796 24.1992 12.1953 24.1914 12.3046 24.1485C12.2734 24.1602 12.2421 24.1719 12.207 24.1836C12.1171 24.2149 12.0234 24.2383 11.9296 24.2578C11.7773 24.2891 11.9375 24.2891 11.9531 24.2578C11.9453 24.2735 11.8125 24.2695 11.7929 24.2695C11.6836 24.2735 11.5781 24.2695 11.4687 24.2617C11.2851 24.25 11.6445 24.3047 11.4687 24.2578C11.4023 24.2422 11.332 24.2266 11.2656 24.2071C11.2148 24.1914 11.1679 24.1758 11.1171 24.1602C10.9492 24.1055 11.2695 24.2422 11.1132 24.1602C11.039 24.1211 10.9609 24.0821 10.8906 24.0391C10.8789 24.0313 10.7617 23.961 10.7656 23.9531C10.7929 23.9727 10.8164 23.9922 10.8437 24.0156C10.8164 23.9961 10.7929 23.9727 10.7656 23.9492C10.6757 23.8711 10.5976 23.7852 10.5195 23.6953C10.4023 23.5664 10.6132 23.8399 10.5195 23.6914C10.4921 23.6485 10.4648 23.6055 10.4375 23.5625C10.4101 23.5196 10.3867 23.4727 10.3632 23.4297C10.3554 23.4141 10.3476 23.3985 10.3398 23.3828C10.3046 23.3047 10.3125 23.3203 10.3554 23.4297C10.332 23.4297 10.2812 23.211 10.2734 23.1836C10.2617 23.1328 10.25 23.082 10.2382 23.0313C10.2226 22.9453 10.2265 22.961 10.2421 23.0821C10.2382 23.0469 10.2343 23.0117 10.2304 22.9766C10.2226 22.8672 10.2226 22.7617 10.2304 22.6524C10.2304 22.6328 10.2343 22.6172 10.2343 22.5977C10.2421 22.5117 10.2421 22.5274 10.2265 22.6485C10.2226 22.6485 10.2539 22.5039 10.2578 22.4961C10.2773 22.4102 10.3086 22.332 10.332 22.25C10.3867 22.082 10.25 22.4024 10.332 22.2461C10.3632 22.1875 10.3945 22.125 10.4296 22.0664C10.457 22.0235 10.4843 21.9805 10.5117 21.9375C10.6054 21.7891 10.3945 22.0664 10.5117 21.9336C10.5781 21.8594 10.6445 21.7852 10.7226 21.7149C10.7343 21.7031 10.8242 21.6133 10.8398 21.6172C10.8125 21.6367 10.789 21.6563 10.7617 21.6797C10.789 21.6602 10.8164 21.6406 10.8437 21.6211C10.9296 21.5664 11.0195 21.5196 11.1093 21.4727C11.2656 21.3906 10.9414 21.5274 11.1132 21.4727C11.164 21.4571 11.2109 21.4375 11.2617 21.4258C11.3125 21.4102 11.3632 21.3985 11.414 21.3867C11.4296 21.3828 11.4492 21.3789 11.4648 21.375C11.5507 21.3594 11.5351 21.3633 11.414 21.3789C11.4375 21.3438 11.6953 21.3633 11.7382 21.3633C11.7929 21.3633 11.8437 21.3711 11.8984 21.3711C12.0703 21.3828 11.7461 21.336 11.8984 21.375C12.0156 21.4063 12.1328 21.4336 12.25 21.4727C12.4179 21.5274 12.0976 21.3906 12.2539 21.4727C12.3125 21.5039 12.375 21.5352 12.4336 21.5703C12.4765 21.5977 12.5195 21.625 12.5625 21.6524C12.6289 21.7031 12.6171 21.6914 12.5273 21.6211C12.5546 21.6406 12.5781 21.6641 12.6054 21.6875C12.6796 21.7539 12.7539 21.8242 12.8203 21.9024C12.832 21.9141 12.8437 21.9297 12.8515 21.9414C12.9023 22.0078 12.8945 21.9922 12.8242 21.9024C12.8359 21.8985 12.9257 22.0547 12.9375 22.0703C12.9648 22.1133 12.9882 22.1602 13.0117 22.2031C13.0273 22.2344 13.0429 22.2656 13.0546 22.2969C13.0117 22.1875 13.0039 22.1719 13.0351 22.2539C13.0742 22.3711 13.1015 22.4844 13.1328 22.6055C13.1757 22.7813 13.125 22.4219 13.1367 22.6055C13.1289 22.6797 13.1367 22.75 13.1367 22.8242C13.1406 23.2344 13.4921 23.625 13.9179 23.6055C14.3359 23.586 14.7031 23.2617 14.6992 22.8242C14.6836 21.5274 13.8711 20.418 12.664 19.9727C11.5351 19.5547 10.164 19.9375 9.39449 20.8594C8.57808 21.8399 8.42183 23.25 9.08199 24.3633C9.74605 25.4805 11.0468 26.0195 12.3125 25.7735C13.6992 25.5039 14.6796 24.207 14.6992 22.8242C14.7031 22.4141 14.3359 22.0235 13.9179 22.043C13.4882 22.0625 13.1406 22.3867 13.1367 22.8242Z" fill="currentColor"/>
<path d="M29.7968 22.8242C29.7968 22.8789 29.7968 22.9336 29.7929 22.9844C29.7929 23.0039 29.789 23.0195 29.789 23.0391C29.7812 23.125 29.7812 23.1094 29.7968 22.9883C29.8125 22.9922 29.7304 23.2656 29.7226 23.293C29.7187 23.3047 29.6836 23.4375 29.6718 23.4375C29.6836 23.4063 29.6992 23.375 29.7109 23.3438C29.6953 23.375 29.6836 23.4063 29.6679 23.4375C29.6523 23.4688 29.5078 23.75 29.4843 23.7422C29.4882 23.7422 29.6054 23.6055 29.4961 23.7227C29.4687 23.7539 29.4414 23.7852 29.4101 23.8164C29.3867 23.8438 29.2187 24.0313 29.1875 24.0196C29.2148 24 29.2382 23.9805 29.2656 23.957C29.2382 23.9766 29.2109 23.9961 29.1836 24.0156C29.1406 24.043 29.0976 24.0703 29.0546 24.0938C29.0117 24.1172 28.9648 24.1406 28.9179 24.1641C28.8398 24.1992 28.8554 24.1914 28.9648 24.1485C28.9336 24.1602 28.9023 24.1719 28.8671 24.1836C28.7773 24.2149 28.6836 24.2383 28.5898 24.2578C28.4375 24.2891 28.5976 24.2891 28.6132 24.2578C28.6054 24.2735 28.4726 24.2695 28.4531 24.2695C28.3437 24.2735 28.2382 24.2695 28.1289 24.2617C27.9453 24.25 28.3046 24.3047 28.1289 24.2578C28.0625 24.2422 27.9921 24.2266 27.9257 24.2071C27.875 24.1914 27.8281 24.1758 27.7773 24.1602C27.6093 24.1055 27.9296 24.2422 27.7734 24.1602C27.6992 24.1211 27.6211 24.0821 27.5507 24.0391C27.539 24.0313 27.4218 23.961 27.4257 23.9531C27.4531 23.9727 27.4765 23.9922 27.5039 24.0156C27.4765 23.9961 27.4531 23.9727 27.4257 23.9492C27.3359 23.8711 27.2578 23.7852 27.1796 23.6953C27.0625 23.5664 27.2734 23.8399 27.1796 23.6914C27.1523 23.6485 27.125 23.6055 27.0976 23.5625C27.0703 23.5196 27.0468 23.4727 27.0234 23.4297C27.0156 23.4141 27.0078 23.3985 27 23.3828C26.9648 23.3047 26.9726 23.3203 27.0156 23.4297C26.9921 23.4297 26.9414 23.211 26.9336 23.1836C26.9218 23.1328 26.9101 23.082 26.8984 23.0313C26.8828 22.9453 26.8867 22.961 26.9023 23.0821C26.8984 23.0469 26.8945 23.0117 26.8906 22.9766C26.8828 22.8672 26.8828 22.7617 26.8906 22.6524C26.8906 22.6328 26.8945 22.6172 26.8945 22.5977C26.9023 22.5117 26.9023 22.5274 26.8867 22.6485C26.8828 22.6485 26.914 22.5039 26.9179 22.4961C26.9375 22.4102 26.9687 22.332 26.9921 22.25C27.0468 22.082 26.9101 22.4024 26.9921 22.2461C27.0234 22.1875 27.0546 22.125 27.0898 22.0664C27.1171 22.0235 27.1445 21.9805 27.1718 21.9375C27.2656 21.7891 27.0546 22.0664 27.1718 21.9336C27.2382 21.8594 27.3046 21.7852 27.3828 21.7149C27.3945 21.7031 27.4843 21.6133 27.5 21.6172C27.4726 21.6367 27.4492 21.6563 27.4218 21.6797C27.4492 21.6602 27.4765 21.6406 27.5039 21.6211C27.5898 21.5664 27.6796 21.5196 27.7695 21.4727C27.9257 21.3906 27.6015 21.5274 27.7734 21.4727C27.8242 21.4571 27.8711 21.4375 27.9218 21.4258C27.9726 21.4102 28.0234 21.3985 28.0742 21.3867C28.0898 21.3828 28.1093 21.3789 28.125 21.375C28.2109 21.3594 28.1953 21.3633 28.0742 21.3789C28.0976 21.3438 28.3554 21.3633 28.3984 21.3633C28.4531 21.3633 28.5039 21.3711 28.5586 21.3711C28.7304 21.3828 28.4062 21.336 28.5586 21.375C28.6757 21.4063 28.7929 21.4336 28.9101 21.4727C29.0781 21.5274 28.7578 21.3906 28.914 21.4727C28.9726 21.5039 29.0351 21.5352 29.0937 21.5703C29.1367 21.5977 29.1796 21.625 29.2226 21.6524C29.289 21.7031 29.2773 21.6914 29.1875 21.6211C29.2148 21.6406 29.2382 21.6641 29.2656 21.6875C29.3398 21.7539 29.414 21.8242 29.4804 21.9024C29.4921 21.9141 29.5039 21.9297 29.5117 21.9414C29.5625 22.0078 29.5546 21.9922 29.4843 21.9024C29.4961 21.8985 29.5859 22.0547 29.5976 22.0703C29.625 22.1133 29.6484 22.1602 29.6718 22.2031C29.6875 22.2344 29.7031 22.2656 29.7148 22.2969C29.6718 22.1875 29.664 22.1719 29.6953 22.2539C29.7343 22.3711 29.7617 22.4844 29.7929 22.6055C29.8359 22.7813 29.7851 22.4219 29.7968 22.6055C29.7929 22.6797 29.7968 22.75 29.7968 22.8242C29.8007 23.2344 30.1523 23.625 30.5781 23.6055C30.9961 23.586 31.3632 23.2617 31.3593 22.8242C31.3437 21.5274 30.5312 20.418 29.3242 19.9727C28.1953 19.5547 26.8242 19.9375 26.0546 20.8594C25.2382 21.8399 25.082 23.25 25.7421 24.3633C26.4062 25.4805 27.707 26.0195 28.9726 25.7735C30.3593 25.5039 31.3398 24.207 31.3593 22.8242C31.3632 22.4141 30.9961 22.0235 30.5781 22.043C30.1523 22.0625 29.8046 22.3867 29.7968 22.8242Z" fill="currentColor"/>
<path d="M11.7968 28.4687C11.7968 29.0859 11.7968 29.6992 11.7968 30.3164C11.7968 30.6484 11.7968 30.9804 11.7968 31.3164C11.7968 31.3867 11.7968 31.457 11.7968 31.5273C11.7968 31.5625 11.7929 31.5976 11.7929 31.6367C11.7851 31.7617 11.7929 31.5859 11.8007 31.5859C11.8125 31.5898 11.7617 31.7695 11.7539 31.7929C11.75 31.8125 11.707 31.9883 11.6875 31.9922C11.6835 31.9922 11.7773 31.8125 11.7031 31.9492C11.6835 31.9883 11.664 32.0273 11.6445 32.0625C11.6093 32.1211 11.5664 32.1758 11.5351 32.2343C11.4843 32.3242 11.6367 32.125 11.5625 32.1992C11.539 32.2226 11.5195 32.25 11.496 32.2773C11.4492 32.3281 11.3984 32.375 11.3515 32.4218C11.3437 32.4258 11.3398 32.4336 11.332 32.4375C11.2812 32.4804 11.2812 32.4804 11.332 32.4414C11.3828 32.4023 11.3828 32.4023 11.3281 32.4414C11.3125 32.4492 11.3007 32.4609 11.2851 32.4687C11.2265 32.5078 11.1679 32.5429 11.1093 32.5742C11.0781 32.5898 11.0468 32.6054 11.0156 32.6211C10.8789 32.6914 11.0585 32.5976 11.0585 32.6054C11.0585 32.6211 10.8789 32.664 10.8593 32.6718C10.8242 32.6797 10.7929 32.6875 10.7578 32.6953C10.7304 32.6992 10.707 32.707 10.6796 32.7109C10.621 32.7226 10.6445 32.7187 10.7539 32.7031C10.7304 32.7617 10.3789 32.6914 10.3242 32.7031C10.3437 32.6992 10.5078 32.7383 10.375 32.707C10.3398 32.6992 10.3046 32.6914 10.2734 32.6836C10.1953 32.664 10.125 32.6328 10.0507 32.6133C9.94917 32.5898 10.1835 32.6836 10.0937 32.6328C10.0625 32.6172 10.0312 32.6015 9.99996 32.5859C9.93746 32.5547 9.87886 32.5195 9.82417 32.4804C9.79683 32.4609 9.76949 32.4414 9.73824 32.4218C9.6523 32.3672 9.84371 32.5234 9.7773 32.4492C9.72652 32.3945 9.66402 32.3476 9.60933 32.289C9.58589 32.2656 9.56246 32.2383 9.54292 32.2109C9.44136 32.1015 9.57417 32.2461 9.57027 32.25C9.55464 32.2539 9.46871 32.0937 9.45699 32.0781C9.44527 32.0586 9.35152 31.9101 9.36324 31.8945C9.36714 31.8906 9.41792 32.0547 9.38277 31.9375C9.36714 31.8867 9.34761 31.8398 9.33589 31.789C9.32027 31.7304 9.32027 31.6367 9.28902 31.582C9.30074 31.6015 9.30074 31.7695 9.29683 31.6328C9.29683 31.5976 9.29292 31.5625 9.29292 31.5234C9.29292 31.4922 9.29292 31.4648 9.29292 31.4336C9.29292 31.1601 9.29292 30.8828 9.29292 30.6093C9.29292 29.8945 9.29292 29.1836 9.29292 28.4687C9.03121 28.7304 8.77339 28.9883 8.51167 29.25C9.69527 29.25 10.8828 29.25 12.0664 29.25C12.2343 29.25 12.4062 29.25 12.5742 29.25C12.9843 29.25 13.375 28.8906 13.3554 28.4687C13.3359 28.0468 13.0117 27.6875 12.5742 27.6875C11.3906 27.6875 10.2031 27.6875 9.01949 27.6875C8.85152 27.6875 8.67964 27.6875 8.51167 27.6875C8.0898 27.6875 7.73042 28.0468 7.73042 28.4687C7.73042 29.1406 7.73042 29.8125 7.73042 30.4843C7.73042 31.3906 7.67183 32.3086 8.24996 33.0781C8.75777 33.7539 9.46089 34.1601 10.3007 34.2539C11.0781 34.3398 11.8515 34.0429 12.4335 33.5351C13.0195 33.0195 13.3476 32.2422 13.3554 31.4687C13.3593 31.2461 13.3554 31.0195 13.3554 30.7968C13.3554 30.0195 13.3554 29.2422 13.3554 28.4687C13.3554 28.0586 12.996 27.6679 12.5742 27.6875C12.1562 27.7031 11.7968 28.0273 11.7968 28.4687Z" fill="currentColor"/>
<path d="M30.7031 28.4687C30.7031 29.0859 30.7031 29.6992 30.7031 30.3164C30.7031 30.6484 30.7031 30.9804 30.7031 31.3164C30.7031 31.3867 30.7031 31.457 30.7031 31.5273C30.7031 31.5625 30.6992 31.5976 30.6953 31.6367C30.6875 31.7617 30.6953 31.5859 30.7031 31.5859C30.7148 31.5898 30.6602 31.7695 30.6562 31.7929C30.6367 31.8593 30.6016 31.9258 30.5898 31.9922C30.5937 31.9687 30.668 31.832 30.6055 31.9492C30.582 31.9883 30.5664 32.0273 30.543 32.0625C30.5078 32.1211 30.4648 32.1758 30.4297 32.2343C30.375 32.3203 30.5313 32.1289 30.457 32.1992C30.4336 32.2226 30.4102 32.25 30.3867 32.2773C30.3398 32.3281 30.2891 32.375 30.2383 32.4218C30.2187 32.4414 30.1289 32.5117 30.2187 32.4414C30.3164 32.3672 30.1953 32.457 30.1719 32.4726C30.1133 32.5117 30.0547 32.5468 29.9922 32.5781C29.9609 32.5937 29.9297 32.6093 29.8984 32.625C29.7734 32.6875 29.9219 32.6054 29.9414 32.6093C29.8906 32.6054 29.793 32.6601 29.7422 32.6758C29.707 32.6836 29.6719 32.6914 29.6406 32.6992C29.6133 32.7031 29.5898 32.7109 29.5625 32.7148C29.5039 32.7265 29.5273 32.7226 29.6367 32.707C29.6055 32.7695 29.2656 32.6914 29.2031 32.707C29.2227 32.7031 29.3867 32.7422 29.2539 32.7109C29.2188 32.7031 29.1836 32.6953 29.1484 32.6875C29.0703 32.6679 28.9961 32.6406 28.9219 32.6172C28.8203 32.5898 29.0586 32.6836 28.9609 32.6367C28.9297 32.6211 28.8984 32.6054 28.8672 32.5898C28.8047 32.5586 28.7461 32.5234 28.6875 32.4843C28.6602 32.4648 28.6328 32.4414 28.6016 32.4258C28.5117 32.375 28.707 32.5234 28.6367 32.4531C28.582 32.3984 28.5195 32.3515 28.4648 32.2929C28.4414 32.2695 28.418 32.2422 28.3945 32.2148C28.2891 32.1093 28.418 32.2539 28.418 32.2539C28.3789 32.2422 28.3242 32.1172 28.3008 32.082C28.2891 32.0625 28.1914 31.9101 28.2031 31.8984C28.2031 31.8984 28.2617 32.0547 28.2227 31.9414C28.207 31.8906 28.1875 31.8437 28.1719 31.7929C28.1563 31.7343 28.1563 31.6367 28.125 31.5859C28.1367 31.6015 28.1406 31.7773 28.1328 31.6367C28.1328 31.6015 28.1289 31.5664 28.125 31.5273C28.125 31.4961 28.125 31.4687 28.125 31.4375C28.125 31.164 28.125 30.8867 28.125 30.6133C28.125 29.8984 28.125 29.1875 28.125 28.4726C27.8633 28.7343 27.6055 28.9922 27.3438 29.2539C28.5547 29.2539 29.7617 29.2539 30.9727 29.2539C31.1445 29.2539 31.3164 29.2539 31.4844 29.2539C31.8945 29.2539 32.2852 28.8945 32.2656 28.4726C32.2461 28.0508 31.9219 27.6914 31.4844 27.6914C30.2734 27.6914 29.0664 27.6914 27.8555 27.6914C27.6836 27.6914 27.5117 27.6914 27.3438 27.6914C26.9219 27.6914 26.5625 28.0508 26.5625 28.4726C26.5625 29.1445 26.5625 29.8164 26.5625 30.4883C26.5625 30.8008 26.5625 31.1133 26.5625 31.4218C26.5625 32.0156 26.7344 32.6054 27.0977 33.082C27.6133 33.7578 28.3281 34.164 29.1719 34.2578C29.957 34.3437 30.7305 34.0429 31.3242 33.539C31.918 33.0312 32.2578 32.25 32.2695 31.4726C32.2734 31.25 32.2695 31.0234 32.2695 30.8008C32.2695 30.0234 32.2695 29.2461 32.2695 28.4726C32.2695 28.0625 31.9102 27.6718 31.4883 27.6914C31.0625 27.7031 30.7031 28.0273 30.7031 28.4687Z" fill="currentColor"/>
<path d="M34.5312 20.168C34.5312 21.3985 34.5312 22.6289 34.5312 23.8594C34.5312 24.3789 34.5312 24.8985 34.5312 25.418C34.5312 25.4883 34.5547 25.7617 34.5156 25.7813C34.5234 25.7774 34.5469 25.6094 34.5234 25.7305C34.5156 25.7656 34.5117 25.8008 34.5039 25.836C34.4922 25.9063 34.4727 25.9727 34.457 26.0391C34.4414 26.0977 34.4219 26.1563 34.4023 26.2149C34.3906 26.2461 34.3789 26.2813 34.3672 26.3125C34.3086 26.4688 34.3867 26.3008 34.375 26.293C34.3984 26.3203 34.2031 26.6211 34.1797 26.6563C34.1445 26.7149 34.1055 26.7695 34.0664 26.8242C34.0469 26.8516 33.9961 26.8906 34.0664 26.8281C34.1562 26.7461 34.0508 26.8438 34.0312 26.8672C33.9414 26.9688 33.8477 27.0664 33.7461 27.1563C33.7188 27.1797 33.6953 27.1992 33.668 27.2227C33.582 27.3008 33.7031 27.207 33.707 27.1953C33.707 27.2227 33.5703 27.293 33.5391 27.3125C33.4219 27.3867 33.3008 27.4492 33.1797 27.5117C33.0781 27.5625 33.2148 27.5156 33.2227 27.4961C33.2188 27.5039 33.1289 27.5313 33.125 27.5352C33.0508 27.5625 32.9766 27.586 32.9023 27.6055C32.8438 27.6211 32.7852 27.6367 32.7227 27.6485C32.6875 27.6563 32.6523 27.6602 32.6172 27.668C32.4844 27.6992 32.6445 27.6641 32.668 27.6641C32.543 27.6641 32.418 27.6875 32.2891 27.6875C32.2578 27.6875 32.2305 27.6875 32.1992 27.6875C31.9844 27.6875 31.7656 27.6875 31.5508 27.6875C30.6094 27.6875 29.668 27.6875 28.7266 27.6875C27.3125 27.6875 25.8984 27.6875 24.4805 27.6875C22.8398 27.6875 21.1992 27.6875 19.5586 27.6875C17.9414 27.6875 16.3203 27.6875 14.7031 27.6875C13.3516 27.6875 11.9961 27.6875 10.6445 27.6875C9.81641 27.6875 8.98828 27.6875 8.16016 27.6875C8.01953 27.6875 7.875 27.6875 7.73438 27.6875C7.62109 27.6875 7.51172 27.6797 7.39844 27.6719C7.25391 27.6602 7.56641 27.7031 7.36719 27.6641C7.29688 27.6524 7.23047 27.6367 7.16016 27.6172C7.10156 27.6016 7.04297 27.586 6.98438 27.5664C6.95313 27.5547 6.91797 27.543 6.88672 27.5313C6.86328 27.5235 6.83594 27.5117 6.8125 27.5039C6.75781 27.4805 6.78125 27.4922 6.87891 27.5313C6.83203 27.5547 6.58203 27.3789 6.53516 27.3516C6.47656 27.3164 6.42188 27.2774 6.36328 27.2383C6.35547 27.2344 6.30078 27.1992 6.30078 27.1953C6.38281 27.2617 6.40234 27.2774 6.35938 27.2383C6.33984 27.2227 6.32031 27.207 6.30078 27.1875C6.20313 27.1055 6.10938 27.0156 6.02344 26.9219C5.97656 26.8711 5.93359 26.8164 5.89063 26.7656C5.82422 26.6875 5.96875 26.8906 5.91797 26.8008C5.89844 26.7656 5.86719 26.7305 5.84375 26.6953C5.77344 26.5899 5.71094 26.4766 5.65234 26.3594C5.63672 26.3281 5.625 26.2969 5.60938 26.2656C5.5625 26.1719 5.65625 26.4102 5.62891 26.3086C5.60547 26.2344 5.57422 26.1602 5.55469 26.086C5.51562 25.9492 5.50391 25.8086 5.46484 25.6719C5.46484 25.6719 5.48047 25.836 5.47656 25.7461C5.47656 25.711 5.46875 25.6758 5.46875 25.6367C5.46484 25.5742 5.46484 25.5078 5.46094 25.4453C5.46094 25.3203 5.46094 25.1953 5.46094 25.0703C5.46094 24.3672 5.46094 23.6602 5.46094 22.957C5.46094 22.211 5.46094 21.4649 5.46094 20.7188C5.46094 20.543 5.46094 20.3672 5.46094 20.1875C5.46094 20.1758 5.46094 20.168 5.46094 20.1563C5.46094 20.1094 5.46094 20.0664 5.46484 20.0195C5.46484 19.9844 5.46875 19.9492 5.47266 19.9102C5.48438 19.7891 5.48828 19.8555 5.46484 19.9336C5.50391 19.8008 5.51562 19.6602 5.55469 19.5235C5.57031 19.4649 5.59375 19.4102 5.61328 19.3516C5.625 19.3242 5.65234 19.2149 5.62109 19.3242C5.58984 19.4414 5.62891 19.3047 5.64453 19.2774C5.70313 19.1563 5.76953 19.0391 5.84766 18.9258C5.86719 18.8985 5.88672 18.8711 5.90625 18.8438C5.97266 18.7461 5.87891 18.8867 5.875 18.8828C5.86719 18.875 5.99609 18.7422 6.00781 18.7305C6.09766 18.6328 6.19922 18.543 6.30078 18.4531C6.39063 18.375 6.26172 18.4805 6.26172 18.4805C6.26172 18.4766 6.34766 18.418 6.34375 18.4219C6.39844 18.3828 6.45703 18.3477 6.51563 18.3125C6.57422 18.2774 6.63281 18.2461 6.69531 18.2149C6.72656 18.1992 6.75781 18.1836 6.78906 18.168C6.92188 18.1016 6.74219 18.1836 6.74219 18.1836C6.77344 18.1172 7.08984 18.0625 7.16016 18.0469C7.21875 18.0313 7.28125 18.0195 7.33984 18.0078C7.33594 18.0078 7.44141 17.9844 7.44531 17.9883C7.44141 17.9805 7.27344 18.0078 7.39844 17.9961C7.50781 17.9883 7.61328 17.9805 7.72266 17.9805C7.83984 17.9805 7.95703 17.9805 8.07422 17.9805C8.85938 17.9805 9.64453 17.9805 10.4336 17.9805C11.7617 17.9805 13.0898 17.9805 14.418 17.9805C16.0273 17.9805 17.6367 17.9805 19.2461 17.9805C20.8945 17.9805 22.5391 17.9805 24.1875 17.9805C25.625 17.9805 27.0625 17.9805 28.4961 17.9805C29.4727 17.9805 30.4531 17.9805 31.4297 17.9805C31.6719 17.9805 31.9102 17.9805 32.1523 17.9805C32.1953 17.9805 32.2383 17.9805 32.2812 17.9805C32.4062 17.9805 32.543 18.0078 32.668 18.0039C32.668 18.0039 32.5039 17.9766 32.5938 17.9961C32.6289 18.0039 32.6641 18.0078 32.6992 18.0156C32.7695 18.0274 32.8359 18.0469 32.9023 18.0625C32.9609 18.0781 33.0195 18.0938 33.0781 18.1133C33.1094 18.125 33.1445 18.1367 33.1758 18.1485C33.1992 18.1563 33.2227 18.168 33.2461 18.1758C33.3008 18.1992 33.2773 18.1875 33.1758 18.1485C33.1914 18.1289 33.4883 18.3125 33.5117 18.3281C33.5703 18.3633 33.625 18.4024 33.6797 18.4414C33.8242 18.5391 33.6016 18.3672 33.7031 18.457C33.8047 18.5469 33.9023 18.6328 33.9922 18.7344C34.0039 18.7461 34.1289 18.8789 34.1211 18.8867C34.1172 18.8906 34.0078 18.7266 34.0898 18.8477C34.1055 18.8672 34.1172 18.8906 34.1328 18.9102C34.207 19.0235 34.2773 19.1367 34.3359 19.2578C34.3477 19.2813 34.3594 19.3047 34.3672 19.3281C34.4336 19.461 34.3437 19.2813 34.3477 19.2813C34.3555 19.2813 34.4102 19.461 34.418 19.4766C34.4609 19.6094 34.4883 19.7461 34.5156 19.8828C34.5391 20.0235 34.5 19.7266 34.5156 19.9141C34.5273 20.0078 34.5312 20.086 34.5312 20.168C34.5352 20.5781 34.8867 20.9688 35.3125 20.9492C35.7344 20.9297 36.0977 20.6055 36.0938 20.168C36.082 18.8281 35.3555 17.5625 34.1758 16.9141C33.5664 16.582 32.8945 16.4336 32.2031 16.4336C31.5703 16.4336 30.9375 16.4336 30.3086 16.4336C29.0625 16.4336 27.8125 16.4336 26.5664 16.4336C24.9648 16.4336 23.3672 16.4336 21.7656 16.4336C20.0742 16.4336 18.3828 16.4336 16.6953 16.4336C15.1758 16.4336 13.6602 16.4336 12.1406 16.4336C11.0586 16.4336 9.98047 16.4336 8.89844 16.4336C8.39844 16.4336 7.87891 16.3985 7.37891 16.4531C6.05859 16.5977 4.82031 17.3594 4.26562 18.5977C4.03906 19.1055 3.91406 19.6328 3.91406 20.1914C3.91406 20.3672 3.91406 20.5391 3.91406 20.7149C3.91406 22.1797 3.91406 23.6445 3.91406 25.1094C3.91406 25.9336 4.03125 26.7305 4.48438 27.4414C5.19141 28.5547 6.42188 29.2383 7.73828 29.2461C8.17969 29.25 8.62109 29.2461 9.0625 29.2461C10.1836 29.2461 11.3047 29.2461 12.4258 29.2461C13.9648 29.2461 15.5 29.2461 17.0391 29.2461C18.7305 29.2461 20.4258 29.2461 22.1172 29.2461C23.7031 29.2461 25.2852 29.2461 26.8711 29.2461C28.0859 29.2461 29.2969 29.2461 30.5117 29.2461C31.0898 29.2461 31.6719 29.2461 32.25 29.2461C33.0703 29.2461 33.8867 29.0039 34.543 28.5117C35.5234 27.7735 36.0977 26.6563 36.1016 25.4258C36.1055 24.082 36.1016 22.7422 36.1016 21.3985C36.1016 20.9883 36.1016 20.5781 36.1016 20.1719C36.1016 19.7617 35.7422 19.3711 35.3203 19.3906C34.8906 19.4063 34.5312 19.7305 34.5312 20.168Z" fill="currentColor"/>
<path d="M19.1562 16.4376C18.3242 16.4376 17.4883 16.4376 16.6562 16.4376C15.3203 16.4376 13.9844 16.4376 12.6484 16.4376C12.3437 16.4376 12.0391 16.4376 11.7344 16.4376C11.9961 16.6993 12.2539 16.9571 12.5156 17.2188C12.5156 17.129 12.5195 17.0391 12.5273 16.9493C12.5312 16.9063 12.5352 16.8594 12.5391 16.8165C12.5508 16.6993 12.5 17.0157 12.5391 16.8399C12.5781 16.6602 12.6133 16.4805 12.6758 16.3047C12.6914 16.2579 12.7148 16.1133 12.7578 16.086C12.7461 16.1172 12.7305 16.1446 12.7187 16.1758C12.7344 16.1446 12.7461 16.1133 12.7617 16.0821C12.7773 16.0508 12.793 16.0196 12.8086 15.9883C12.8945 15.8204 12.9922 15.6563 13.1055 15.5001C13.1211 15.4805 13.1484 15.4297 13.168 15.418C13.1484 15.4454 13.1289 15.4688 13.1094 15.4962C13.1328 15.4688 13.1523 15.4415 13.1758 15.418C13.2266 15.3594 13.2773 15.3008 13.332 15.2462C13.3867 15.1915 13.4414 15.1368 13.5 15.0821C13.5391 15.0469 13.5781 15.0118 13.6172 14.9805C13.6641 14.9376 13.7383 14.8282 13.6211 14.9727C13.7148 14.8555 13.9258 14.7618 14.0547 14.6876C14.125 14.6485 14.1914 14.6133 14.2617 14.5782C14.293 14.5626 14.3477 14.5235 14.3789 14.5235C14.2734 14.5665 14.2578 14.5743 14.3398 14.543C14.3555 14.5352 14.3711 14.5313 14.3906 14.5235C14.5547 14.461 14.7266 14.4141 14.9023 14.3751C14.9375 14.3672 14.9727 14.3594 15.0078 14.3555C15.0703 14.3438 15.2187 14.3555 15.0156 14.3516C15.1133 14.3516 15.2148 14.3321 15.3164 14.3282C15.4922 14.3204 15.6641 14.3282 15.8398 14.3438C16.0273 14.3594 15.6602 14.3087 15.8477 14.3438C15.8828 14.3516 15.918 14.3555 15.9531 14.3633C16.0586 14.3829 16.1602 14.4102 16.2656 14.4376C16.3437 14.461 16.418 14.4844 16.4922 14.5118C16.5195 14.5235 16.5977 14.5352 16.6133 14.5587C16.582 14.5469 16.5547 14.5352 16.5234 14.5196C16.5469 14.5313 16.5703 14.5391 16.5937 14.5508C16.7578 14.629 16.918 14.7149 17.0742 14.8165C17.1406 14.8594 17.2383 14.9063 17.2852 14.9649C17.1992 14.8555 17.1992 14.8985 17.25 14.9376C17.2891 14.9727 17.3281 15.004 17.3672 15.0391C17.4961 15.1563 17.6172 15.2774 17.7266 15.4102C17.7383 15.4219 17.75 15.4376 17.7617 15.4493C17.8125 15.5157 17.8047 15.504 17.7344 15.4141C17.7695 15.4376 17.8008 15.5079 17.8242 15.5391C17.8789 15.6172 17.9297 15.6993 17.9766 15.7774C18.0234 15.8594 18.0703 15.9415 18.1133 16.0274C18.125 16.0508 18.1836 16.1446 18.1797 16.168C18.168 16.1368 18.1523 16.1094 18.1406 16.0782C18.1523 16.1094 18.168 16.1446 18.1797 16.1758C18.2461 16.3555 18.3008 16.543 18.3398 16.7305C18.3437 16.7422 18.375 16.8829 18.3672 16.8868C18.3828 16.8751 18.3477 16.6954 18.3672 16.8907C18.3789 17.0001 18.3828 17.1055 18.3828 17.2149C18.3867 17.6251 18.7383 18.0157 19.1641 17.9962C19.582 17.9766 19.9531 17.6524 19.9453 17.2149C19.918 15.3204 18.6953 13.6563 16.9297 13.004C15.2305 12.3751 13.1914 12.9454 12.043 14.3399C11.3672 15.1602 10.9766 16.1485 10.9609 17.2149C10.9531 17.6368 11.3242 17.9962 11.7422 17.9962C12.5742 17.9962 13.4102 17.9962 14.2422 17.9962C15.5781 17.9962 16.9141 17.9962 18.25 17.9962C18.5547 17.9962 18.8594 17.9962 19.1641 17.9962C19.5742 17.9962 19.9648 17.6368 19.9453 17.2149C19.918 16.793 19.5937 16.4376 19.1562 16.4376Z" fill="currentColor"/>
</svg>
