<svg width="40" height="40" viewBox="0 0 40 40" fill="currentColor" xmlns="http://www.w3.org/2000/svg">
<path d="M30.1335 35.9333C30.4001 35.8 30.5335 35.6 30.5335 35.3333V23.0667H31.5335C31.9335 23.0667 32.2001 22.8 32.2001 22.4V19.8L34.0001 17.9333C34.2668 17.6667 34.2668 17.2667 34.0001 17L32.2001 15.2V12.6C32.2001 12.2 31.9335 11.9333 31.5335 11.9333H28.9335L27.2668 10.2667V4.66667C27.2668 4.26667 27.0001 4 26.6001 4H14.6001C14.4001 4 14.2668 4.06667 14.1335 4.2L6.20012 12.1333C6.06679 12.2667 6.00012 12.4 6.00012 12.6V32.0667C6.00012 32.4667 6.26679 32.7333 6.66679 32.7333H22.7335V35.3333C22.7335 35.6 22.8668 35.8667 23.1335 35.9333C23.4001 36.0667 23.6668 36 23.8668 35.8L26.6668 33.3333L29.4668 35.8C29.7335 36.0667 30.0668 36 30.1335 35.9333ZM14.0001 6.26667V11.9333H8.33346L14.0001 6.26667ZM22.7335 31.4H7.40012V13.2667H14.6668C15.0668 13.2667 15.3335 13 15.3335 12.6V5.33333H26.0001V10.2667L24.3335 11.9333H21.7335C21.3335 11.9333 21.0668 12.2 21.0668 12.6V15.2L19.2001 17C19.0668 17.1333 18.8001 17.4667 19.2001 17.9333L21.0668 19.8V22.4C21.0668 22.8 21.3335 23.0667 21.7335 23.0667H22.7335V31.4ZM22.4001 21.7333V19.5333C22.4001 19.3333 22.3335 19.2 22.2001 19.0667L20.6668 17.5333L22.2001 16C22.3335 15.8667 22.4001 15.7333 22.4001 15.5333V13.3333H24.6001C24.8001 13.3333 24.9335 13.2667 25.0668 13.1333L26.6001 11.6L28.1335 13.1333C28.2668 13.2667 28.4001 13.3333 28.6001 13.3333H30.8001V15.5333C30.8001 15.7333 30.8668 15.8667 31.0001 16L32.5335 17.5333L31.0001 19.0667C30.8668 19.2 30.8001 19.3333 30.8001 19.5333V21.7333H28.6001C28.4001 21.7333 28.2668 21.8 28.1335 21.9333L26.6001 23.4667L25.0668 21.9333C24.9335 21.8 24.8001 21.7333 24.6001 21.7333H22.4001ZM29.2001 33.8667L27.0668 32C26.8001 31.8 26.4001 31.8 26.2001 32L24.0668 33.8667V23.0667H24.3335L26.1335 24.8667C26.5335 25.2667 26.9335 25 27.0668 24.8667L28.9335 23.0667H29.2001V33.8667Z" fill="currentColor"/>
</svg>
