<svg width="40" height="40" viewBox="0 0 40 40" fill="currentColor" xmlns="http://www.w3.org/2000/svg">
<path d="M6.66939 20.6683H8.66939V33.335C8.66939 33.7017 8.96939 34.0017 9.33605 34.0017H17.3361C17.7027 34.0017 18.0027 33.7017 18.0027 33.335V28.6683H22.0027V33.335C22.0027 33.7017 22.3027 34.0017 22.6694 34.0017H30.6694C31.0361 34.0017 31.3361 33.7017 31.3361 33.335V20.6683H33.3361C33.6027 20.6683 33.8494 20.5083 33.9494 20.255C34.0494 20.0083 33.9961 19.7217 33.8027 19.5283L20.4694 6.195C20.2094 5.935 19.7894 5.935 19.5294 6.195L6.19605 19.5283C6.00272 19.7217 5.94939 20.0083 6.04939 20.255C6.15605 20.5083 6.40272 20.6683 6.66939 20.6683ZM20.0027 7.60833L31.7294 19.335H30.6694C30.3027 19.335 30.0027 19.635 30.0027 20.0017V32.6683H23.3361V28.0017C23.3361 27.635 23.0361 27.335 22.6694 27.335H20.6694V24.6683C20.6694 24.3017 20.3694 24.0017 20.0027 24.0017C19.6361 24.0017 19.3361 24.3017 19.3361 24.6683V27.335H17.3361C16.9694 27.335 16.6694 27.635 16.6694 28.0017V32.6683H10.0027V20.0017C10.0027 19.635 9.70272 19.335 9.33605 19.335H8.27605L20.0027 7.60833Z" fill="currentColor"/>
<path d="M14.8158 19.3683C17.6758 16.5083 22.3292 16.5083 25.1892 19.3683C25.3225 19.5016 25.4892 19.5616 25.6625 19.5616C25.8358 19.5616 26.0025 19.495 26.1358 19.3683C26.3958 19.1083 26.3958 18.6883 26.1358 18.4283C22.7558 15.0483 17.2558 15.0483 13.8825 18.4283C13.6225 18.6883 13.6225 19.1083 13.8825 19.3683C14.1425 19.6283 14.5558 19.6283 14.8158 19.3683Z" fill="currentColor"/>
<path d="M15.7627 20.3082C15.5027 20.5682 15.5027 20.9882 15.7627 21.2482C16.0227 21.5082 16.4427 21.5082 16.7027 21.2482C18.5227 19.4282 21.4827 19.4282 23.3027 21.2482C23.436 21.3816 23.6027 21.4416 23.776 21.4416C23.9494 21.4416 24.116 21.3749 24.2494 21.2482C24.5094 20.9882 24.5094 20.5682 24.2494 20.3082C21.9027 17.9749 18.1027 17.9749 15.7627 20.3082Z" fill="currentColor"/>
<path d="M17.6426 22.195C17.3826 22.455 17.3826 22.875 17.6426 23.135C17.9026 23.395 18.3226 23.395 18.5826 23.135C19.3626 22.355 20.6292 22.355 21.4092 23.135C21.5426 23.2683 21.7092 23.3283 21.8826 23.3283C22.0559 23.3283 22.2226 23.2616 22.3559 23.135C22.6159 22.875 22.6159 22.455 22.3559 22.195C21.0626 20.895 18.9426 20.895 17.6426 22.195Z" fill="currentColor"/>
</svg>
