<svg width="40" height="40" viewBox="0 0 40 40" fill="none" xmlns="http://www.w3.org/2000/svg">
<path d="M29.1759 15.368V7.76843C29.1759 7.37911 28.9696 7.02725 28.624 6.82714C28.2888 6.63271 27.8976 6.61422 27.551 6.77545L10.6773 14.6316H6.15243C3.28475 14.6316 0.952393 16.9647 0.952393 19.8322V19.9664C0.952393 22.8097 3.24587 25.1258 6.07989 25.1651L4.29328 32.3517C4.20603 32.7026 4.33832 32.9364 4.42509 33.0445C4.63135 33.3011 4.91916 33.3333 5.14628 33.3333C5.18706 33.3333 5.22641 33.3323 5.26245 33.3314C5.30085 33.3304 5.34116 33.329 5.38336 33.329H8.08887C8.68915 33.329 9.24249 32.9245 9.3762 32.3882L11.1225 25.3638L27.5514 33.0227C27.7074 33.0957 27.8729 33.1318 28.0384 33.1318C28.2394 33.1318 28.441 33.0782 28.6249 32.971C28.9701 32.7709 29.1764 32.419 29.1764 32.0297V24.4306C30.8131 23.9203 31.989 22.0804 31.989 19.8991C31.9881 17.7177 30.8122 15.8778 29.1759 15.368ZM11.3529 15.6896L24.4647 9.58511V30.2111L11.3529 24.0986V15.6896ZM2.19657 19.9664V19.8322C2.19657 17.6504 3.97133 15.8759 6.15243 15.8759H10.1083V23.8852C10.0926 23.8971 10.0779 23.9094 10.0637 23.9227H6.15243C3.97133 23.9227 2.19657 22.1477 2.19657 19.9664ZM8.17659 32.052C8.15715 32.0667 8.12017 32.0847 8.08793 32.0847H5.64129L7.36105 25.1665H9.88829L8.17659 32.052ZM27.9317 31.8272L25.7089 30.7911V9.00611L27.9317 7.97139V31.8272ZM29.1759 23.0824V16.7162C30.0948 17.2265 30.7444 18.4779 30.7444 19.8991C30.7439 21.3207 30.0948 22.5717 29.1759 23.0824ZM39.5238 19.8991C39.5238 20.2429 39.2455 20.5212 38.9017 20.5212H34.3797C34.036 20.5212 33.7576 20.2429 33.7576 19.8991C33.7576 19.5553 34.036 19.2769 34.3797 19.2769H38.9017C39.2455 19.2769 39.5238 19.5557 39.5238 19.8991ZM32.2835 14.9816C32.0938 14.6951 32.1725 14.3087 32.4594 14.1195L36.2313 11.6251C36.5177 11.4355 36.9036 11.5142 37.0933 11.8011C37.283 12.088 37.2043 12.474 36.9174 12.6632L33.1455 15.1575C33.0402 15.2272 32.9208 15.2604 32.8032 15.2604C32.6012 15.2604 32.4035 15.1622 32.2835 14.9816ZM37.0928 27.998C36.9733 28.1792 36.7752 28.2773 36.5732 28.2773C36.4556 28.2773 36.3361 28.2441 36.2308 28.1739L32.4589 25.6796C32.1725 25.4899 32.0934 25.1039 32.283 24.8175C32.4727 24.5311 32.8586 24.4519 33.145 24.6416L36.9169 27.1359C37.2038 27.3251 37.2825 27.7111 37.0928 27.998Z" fill="currentColor" stroke="currentColor" stroke-width="0.16"/>
</svg>
