<?xml version="1.0" standalone="no"?>
<!DOCTYPE svg PUBLIC "-//W3C//DTD SVG 20010904//EN"
 "http://www.w3.org/TR/2001/REC-SVG-20010904/DTD/svg10.dtd">
<svg version="1.0" xmlns="http://www.w3.org/2000/svg"
 width="695.000000pt" height="224.000000pt" viewBox="0 0 695.000000 224.000000"
 preserveAspectRatio="xMidYMid meet">

<g transform="translate(0.000000,224.000000) scale(0.100000,-0.100000)"
fill="#000000" stroke="none">
<path d="M413 2165 c-127 -28 -242 -114 -293 -220 -51 -106 -53 -120 -57 -612
l-5 -463 191 0 191 0 0 150 0 150 55 0 55 0 0 170 0 170 -55 0 -55 0 0 88 c1
149 25 202 92 202 44 0 66 -16 78 -58 6 -23 10 -197 10 -454 l0 -418 191 0
191 0 -4 478 c-5 515 -6 530 -62 640 -30 59 -102 127 -161 152 -94 40 -243 51
-362 25z"/>
<path d="M2543 2165 c-127 -28 -242 -114 -293 -220 -51 -106 -53 -120 -57
-612 l-5 -463 191 0 191 0 0 150 0 150 55 0 55 0 0 170 0 170 -55 0 -55 0 0
88 c1 149 25 202 92 202 44 0 66 -16 78 -58 6 -23 10 -197 10 -454 l0 -418
191 0 191 0 -4 478 c-5 515 -6 530 -62 640 -30 59 -102 127 -161 152 -94 40
-243 51 -362 25z"/>
<path d="M3665 2166 c-126 -31 -238 -123 -297 -243 -32 -66 -33 -72 -33 -189
0 -119 0 -121 38 -196 26 -53 54 -91 93 -127 31 -28 60 -51 64 -51 5 0 45 64
89 142 72 127 79 143 66 158 -8 9 -15 33 -15 54 0 51 36 86 87 86 57 0 83 -22
83 -72 0 -35 -35 -107 -215 -445 -118 -221 -215 -405 -215 -408 0 -3 185 -5
410 -5 l410 0 0 185 0 185 -105 0 c-58 0 -105 2 -105 4 0 3 41 87 91 188 86
175 91 188 96 264 3 45 1 103 -6 133 -51 240 -299 396 -536 337z"/>
<path d="M4871 2165 c-146 -33 -290 -128 -377 -250 -155 -219 -163 -538 -18
-772 57 -91 172 -199 258 -242 203 -100 448 -74 595 64 105 98 147 202 139
345 -6 92 -24 146 -80 232 l-30 48 -184 0 -184 0 0 -145 0 -145 63 0 c65 0 87
-11 87 -42 0 -56 -133 -63 -236 -13 -162 79 -194 334 -59 470 78 78 205 104
323 67 l62 -20 -2 191 -3 191 -45 14 c-68 20 -233 24 -309 7z"/>
<path d="M6085 2164 c-38 -8 -110 -34 -160 -59 -469 -231 -500 -878 -56 -1164
187 -120 447 -132 661 -29 119 57 238 177 297 298 56 115 68 173 67 310 -1
145 -30 243 -105 354 -159 238 -424 348 -704 290z m261 -392 c62 -32 97 -65
129 -124 27 -47 30 -63 30 -138 0 -75 -3 -91 -30 -138 -32 -59 -66 -91 -129
-125 -58 -31 -184 -31 -241 0 -230 122 -211 449 31 539 54 20 158 13 210 -14z"/>
<path d="M1110 1965 l0 -185 150 0 150 0 0 -455 0 -455 190 0 190 0 0 455 0
455 145 0 145 0 0 185 0 185 -485 0 -485 0 0 -185z"/>
<path d="M5317 653 c-4 -3 -7 -35 -7 -70 l0 -63 -995 0 -995 0 0 -170 0 -170
995 0 995 0 0 -70 c0 -47 4 -72 13 -75 6 -3 343 61 747 142 679 137 735 150
735 168 0 18 -56 31 -730 167 -401 81 -735 147 -741 148 -6 0 -14 -3 -17 -7z"/>
<path d="M411 506 c-8 -9 -11 -63 -9 -167 l3 -154 128 -3 127 -3 0 171 0 170
-119 0 c-89 0 -121 -3 -130 -14z"/>
<path d="M1430 350 l0 -170 155 0 155 0 0 170 0 170 -155 0 -155 0 0 -170z"/>
<path d="M2490 350 l0 -170 155 0 155 0 0 170 0 170 -155 0 -155 0 0 -170z"/>
</g>
</svg>
