<?xml version="1.0" standalone="no"?>
<!DOCTYPE svg PUBLIC "-//W3C//DTD SVG 20010904//EN"
 "http://www.w3.org/TR/2001/REC-SVG-20010904/DTD/svg10.dtd">
<svg version="1.0" xmlns="http://www.w3.org/2000/svg"
 width="5425.000000pt" height="5425.000000pt" viewBox="0 0 5425.000000 5425.000000"
 preserveAspectRatio="xMidYMid meet">
<metadata>
Created by potrace 1.14, written by Peter Selinger 2001-2017
</metadata>
<g transform="translate(0.000000,5425.000000) scale(0.100000,-0.100000)"
fill="#000000" stroke="none">
<path d="M21148 47739 c-223 -23 -461 -117 -640 -252 -151 -114 -303 -296
-387 -465 -45 -89 -97 -251 -116 -356 -11 -63 -15 -157 -15 -331 0 -274 11
-359 65 -522 69 -207 158 -348 319 -508 120 -119 205 -181 343 -249 140 -69
275 -108 435 -125 66 -8 1008 -11 2953 -11 l2855 0 0 -6530 c0 -5845 2 -6541
16 -6641 102 -733 641 -1332 1356 -1508 358 -88 778 -75 1117 35 137 44 361
156 481 242 123 87 345 309 432 432 86 120 198 344 242 481 45 138 75 293 86
449 6 75 10 2733 10 6582 l0 6458 2808 3 2807 3 90 21 c473 111 830 426 975
861 58 175 65 232 65 527 0 246 -2 279 -23 374 -30 132 -62 222 -120 335 -200
389 -587 651 -1031 695 -125 13 -15003 13 -15123 0z"/>
<path d="M16207 47729 c-290 -42 -674 -212 -963 -424 -286 -211 -567 -495
-796 -805 -46 -63 -2385 -3473 -5197 -7578 -3427 -5003 -5121 -7483 -5138
-7525 -35 -83 -43 -224 -18 -317 20 -79 79 -199 133 -271 47 -65 160 -174 222
-216 282 -192 655 -224 977 -85 230 99 468 287 625 493 31 41 1189 1726 2573
3744 1384 2019 2522 3675 2528 3682 9 9 402 17 1637 32 894 11 1799 23 2012
27 l388 6 3 -3598 c3 -3378 4 -3604 20 -3684 100 -483 423 -833 852 -921 134
-28 594 -27 757 0 608 105 1074 554 1205 1162 17 81 18 382 18 7334 0 6928 -1
7255 -18 7365 -104 667 -436 1162 -947 1412 -264 130 -639 201 -873 167z
m-1003 -6665 l-6 -912 -117 -6 c-64 -3 -743 -9 -1510 -12 l-1394 -7 82 119
c45 66 726 1056 1514 2201 l1432 2083 3 -1278 c2 -702 0 -1687 -4 -2188z"/>
<path d="M46350 47733 c-322 -51 -667 -198 -975 -416 -276 -196 -582 -504
-816 -822 -48 -65 -9868 -14394 -10259 -14969 -96 -141 -126 -273 -96 -416 19
-91 86 -233 150 -317 238 -314 685 -449 1081 -326 105 33 272 119 382 196 106
75 290 255 365 357 31 41 1186 1724 2568 3740 1382 2016 2516 3668 2519 3672
6 6 4021 62 4027 56 1 -2 6 -1630 12 -3618 9 -3601 9 -3615 30 -3700 62 -256
165 -443 335 -607 140 -134 256 -203 442 -260 l90 -28 340 0 c320 0 346 1 444
23 301 68 532 194 747 407 223 222 353 466 410 770 18 97 19 299 17 7305 -1
6601 -2 7215 -17 7330 -46 350 -149 637 -323 900 -101 152 -295 348 -438 443
-180 119 -386 204 -593 247 -154 31 -359 46 -442 33z m-1026 -5391 l-7 -2190
-116 -6 c-64 -3 -743 -9 -1510 -12 l-1395 -6 20 30 c50 79 3009 4380 3012
4377 2 -1 0 -988 -4 -2193z"/>
<path d="M40985 29180 c-1524 -60 -3077 -539 -4210 -1298 -329 -221 -585 -431
-860 -707 -432 -431 -762 -892 -1055 -1470 -429 -847 -672 -1782 -741 -2850
-14 -218 -14 -798 0 -1025 99 -1592 566 -2960 1381 -4038 279 -369 612 -710
970 -993 429 -339 928 -621 1444 -814 492 -184 1018 -301 1631 -361 218 -21
934 -30 1188 -15 1017 62 2051 279 2977 623 1460 543 2570 1355 3265 2388 173
258 375 636 495 925 186 451 318 959 385 1478 46 359 62 932 36 1292 -71 969
-306 1887 -715 2788 -822 1810 -2195 3183 -3738 3737 -705 254 -1577 374
-2453 340z m280 -2324 c851 -121 1490 -442 2075 -1042 549 -563 977 -1324
1240 -2203 181 -607 297 -1258 319 -1786 30 -721 -93 -1331 -381 -1897 -459
-903 -1349 -1566 -2493 -1856 -1162 -295 -2279 -151 -3139 405 -882 571 -1461
1539 -1736 2903 -231 1150 -201 2191 91 3046 245 722 622 1246 1204 1677 551
408 1260 684 1960 761 173 20 701 15 860 -8z"/>
<path d="M10140 28614 c-757 -53 -1394 -257 -1955 -628 -582 -385 -1015 -906
-1399 -1686 -112 -226 -229 -497 -352 -815 -82 -211 -91 -241 -76 -247 9 -4
184 -55 387 -112 989 -279 2121 -575 2135 -559 4 4 44 118 89 253 46 135 107
308 137 385 119 303 284 597 433 772 239 279 604 450 1056 494 219 21 566 -5
781 -60 367 -94 715 -291 961 -544 108 -111 164 -190 233 -326 237 -472 268
-1047 87 -1576 -122 -355 -310 -641 -613 -935 -251 -243 -467 -386 -943 -625
-558 -279 -962 -437 -2301 -900 -1194 -413 -1549 -551 -2045 -795 -837 -412
-1323 -803 -1876 -1510 -320 -409 -569 -824 -795 -1320 -82 -180 -169 -389
-163 -394 6 -4 773 -219 1164 -325 2741 -744 5584 -1361 8345 -1810 649 -106
735 -118 737 -107 15 71 313 2102 311 2114 -3 13 -33 21 -153 40 -1907 295
-4250 751 -6104 1188 l-115 27 30 24 c16 14 79 62 139 108 365 277 687 419
1960 865 1921 673 2750 1024 3416 1446 974 617 1631 1615 1769 2687 82 638 20
1320 -173 1907 -107 326 -289 691 -472 950 -224 316 -573 663 -915 911 -793
576 -1860 972 -2920 1085 -137 14 -676 26 -800 18z"/>
<path d="M24240 27433 c-289 -8 -643 -43 -955 -94 -1604 -263 -3073 -1109
-4052 -2332 -860 -1073 -1408 -2494 -1562 -4047 -169 -1704 208 -3262 1067
-4405 248 -330 598 -690 947 -971 1009 -814 2239 -1312 3625 -1468 642 -72
1402 -65 2026 19 496 67 966 187 1384 352 675 267 1153 603 1881 1320 l226
223 188 -752 c103 -414 192 -768 197 -786 l9 -34 102 6 c56 4 275 15 487 27
596 31 1538 92 1544 101 2 2 -110 1531 -248 3398 -226 3053 -253 3395 -268
3398 -9 2 -158 -6 -330 -17 -1000 -66 -1921 -108 -3068 -141 -179 -5 -805 -15
-1391 -22 l-1067 -12 -6 -455 c-3 -251 -9 -724 -12 -1052 l-6 -596 186 -6
c354 -11 2256 14 2985 39 l194 7 -7 -60 c-19 -169 -94 -452 -173 -653 -106
-269 -295 -593 -489 -835 -112 -140 -387 -416 -524 -525 -501 -400 -1130 -631
-1964 -721 -280 -30 -784 -37 -1006 -14 -879 90 -1738 459 -2396 1027 -281
242 -501 531 -674 883 -253 516 -381 1083 -405 1810 -13 375 34 955 121 1485
306 1868 1174 3028 2624 3510 385 127 750 189 1178 197 789 16 1493 -157 2054
-504 563 -348 995 -896 1158 -1468 13 -44 27 -84 31 -89 16 -18 1439 48 2458
114 167 11 316 20 331 20 l28 0 -19 88 c-115 523 -353 1078 -662 1542 -191
287 -375 509 -642 775 -208 209 -369 349 -590 515 -935 700 -2086 1076 -3615
1180 -205 14 -636 30 -730 28 -41 -1 -118 -3 -170 -5z"/>
<path d="M49990 17080 c-1853 -7 -1786 -5 -2045 -67 -225 -53 -474 -155 -672
-274 -49 -29 -212 -146 -363 -259 -1196 -896 -2311 -1603 -3600 -2282 -384
-203 -974 -497 -1246 -621 -126 -58 -319 -146 -429 -197 -204 -94 -860 -371
-1195 -505 -1479 -591 -3214 -1125 -4870 -1500 -513 -117 -876 -194 -908 -195
-10 0 -9 5 3 17 14 14 16 33 10 142 -3 69 -7 387 -8 706 -2 561 -1 585 21 725
104 655 364 1173 817 1625 149 149 452 395 486 395 6 0 -39 -53 -102 -117
-437 -451 -686 -809 -857 -1233 -139 -346 -190 -647 -178 -1065 6 -217 31
-497 35 -388 0 23 10 87 20 141 57 295 186 518 442 767 277 268 540 430 1074
660 540 233 828 420 1093 710 194 212 341 500 387 760 35 191 29 501 -10 643
l-17 60 -62 -28 c-246 -111 -562 -179 -1060 -230 -319 -33 -402 -48 -611 -108
-253 -74 -346 -120 -559 -281 -260 -195 -509 -468 -666 -733 -311 -521 -453
-1115 -411 -1718 11 -154 54 -489 67 -524 3 -9 1 -16 -5 -16 -5 0 -38 54 -71
120 -305 598 -846 1062 -1575 1350 -66 26 -138 55 -160 64 l-40 17 59 -7 c141
-14 436 -103 606 -182 256 -118 519 -305 769 -547 57 -55 101 -91 97 -80 -35
95 -48 152 -61 269 -30 277 -85 350 -420 572 -294 194 -410 228 -775 227 -127
0 -293 -8 -438 -22 -128 -11 -278 -21 -332 -21 -92 0 -100 -2 -100 -19 0 -28
113 -354 166 -479 173 -407 456 -728 790 -895 196 -98 370 -144 676 -177 381
-42 512 -86 643 -216 163 -164 206 -384 137 -709 -19 -90 -27 -146 -21 -156 4
-9 23 -20 41 -24 58 -13 -817 -173 -1582 -290 -940 -143 -1816 -246 -2715
-320 -368 -30 -688 -57 -710 -60 -22 -3 -418 -23 -880 -44 -1093 -51 -2048
-67 -3075 -52 -681 11 -847 16 -1575 46 -692 29 -776 34 -2045 125 -528 38
-1916 183 -2685 280 -659 83 -1794 252 -2435 361 -2862 488 -5683 1161 -8580
2046 -576 176 -943 293 -1675 537 -1470 491 -2135 734 -3982 1454 -932 364
-1308 506 -1375 521 -407 87 -729 75 -942 -37 -183 -96 -281 -254 -293 -475
-18 -329 157 -703 467 -1000 111 -107 308 -261 477 -375 238 -160 1828 -982
2778 -1437 6943 -3320 14304 -5344 21215 -5834 1668 -119 3449 -151 4935 -91
3167 130 6274 636 9355 1525 4640 1339 9185 3570 13073 6418 658 482 1518
1162 1591 1259 87 115 237 330 264 378 53 95 76 191 76 310 -1 126 -20 204
-75 311 -91 175 -252 299 -446 343 -80 18 -363 18 -3733 6z"/>
</g>
</svg>
