<svg width="24" height="24" viewBox="0 0 24 24" fill="none" xmlns="http://www.w3.org/2000/svg">
<g clip-path="url(#clip0_137_22107)">
<path d="M12 0.00012207C5.37262 0.00012207 0 5.37275 0 12.0001C0 18.6279 5.37262 24.0001 12 24.0001C18.6278 24.0001 24 18.6279 24 12.0001C24 5.37275 18.6278 0.00012207 12 0.00012207ZM12 22.5237C6.21037 22.5237 1.5 17.7897 1.5 12.0001C1.5 6.21045 6.21037 1.50008 12 1.50008C17.7896 1.50008 22.5 6.21047 22.5 12.0001C22.5 17.7897 17.7896 22.5237 12 22.5237ZM16.7891 7.60925L9.74848 14.6941L6.57785 11.5235C6.28498 11.2306 5.81023 11.2306 5.51698 11.5235C5.2241 11.8164 5.2241 12.2911 5.51698 12.584L9.2291 16.2965C9.52198 16.589 9.99673 16.589 10.29 16.2965C10.3237 16.2627 10.3526 16.226 10.3789 16.1877L17.8504 8.6701C18.1429 8.37722 18.1429 7.90247 17.8504 7.60925C17.5571 7.31637 17.0824 7.31637 16.7891 7.60925Z" fill="#2148B8"/>
</g>
<defs>
<clipPath id="clip0_137_22107">
<rect width="24" height="24" fill="white"/>
</clipPath>
</defs>
</svg>
