<svg width="40" height="40" viewBox="0 0 40 40" fill="none" xmlns="http://www.w3.org/2000/svg">
<path d="M25.8333 8.33334C25.8333 7.17961 25.4912 6.0518 24.8502 5.09251C24.2093 4.13322 23.2982 3.38555 22.2323 2.94404C21.1664 2.50253 19.9935 2.38701 18.862 2.61209C17.7304 2.83717 16.691 3.39274 15.8752 4.20855C15.0594 5.02435 14.5038 6.06375 14.2788 7.19531C14.0537 8.32686 14.1692 9.49975 14.6107 10.5657C15.0522 11.6316 15.7999 12.5426 16.7592 13.1836C17.7185 13.8246 18.8463 14.1667 20 14.1667C21.5465 14.1648 23.0292 13.5496 24.1227 12.4561C25.2163 11.3625 25.8315 9.87986 25.8333 8.33334ZM15.8333 8.33334C15.8333 7.50925 16.0777 6.70366 16.5355 6.01846C16.9934 5.33325 17.6441 4.7992 18.4055 4.48384C19.1668 4.16847 20.0046 4.08596 20.8129 4.24673C21.6211 4.4075 22.3636 4.80434 22.9463 5.38706C23.529 5.96978 23.9258 6.71221 24.0866 7.52046C24.2474 8.32871 24.1649 9.16649 23.8495 9.92785C23.5341 10.6892 23.0001 11.34 22.3149 11.7978C21.6297 12.2556 20.8241 12.5 20 12.5C18.8952 12.499 17.836 12.0597 17.0548 11.2785C16.2737 10.4973 15.8344 9.43809 15.8333 8.33334ZM27.2559 29.4108C27.3333 29.4882 27.3946 29.58 27.4365 29.6811C27.4784 29.7822 27.5 29.8905 27.5 30C27.5 30.1094 27.4784 30.2177 27.4365 30.3188C27.3946 30.4199 27.3333 30.5118 27.2559 30.5891L20.5892 37.2558C20.5118 37.3332 20.42 37.3946 20.3189 37.4365C20.2178 37.4783 20.1095 37.4999 20 37.4999C19.8906 37.4999 19.7823 37.4783 19.6812 37.4365C19.5801 37.3946 19.4882 37.3332 19.4109 37.2558L12.7442 30.5891C12.5924 30.432 12.5084 30.2215 12.5103 30.003C12.5122 29.7845 12.5998 29.5755 12.7544 29.421C12.9089 29.2664 13.1179 29.1788 13.3364 29.1769C13.5549 29.175 13.7654 29.259 13.9225 29.4108L19.1667 34.655V20C19.1667 19.779 19.2545 19.567 19.4107 19.4107C19.567 19.2545 19.779 19.1667 20 19.1667C20.221 19.1667 20.433 19.2545 20.5893 19.4107C20.7455 19.567 20.8333 19.779 20.8333 20V34.655L26.0775 29.4109C26.1548 29.3334 26.2467 29.272 26.3478 29.2302C26.4489 29.1883 26.5572 29.1667 26.6667 29.1667C26.7761 29.1667 26.8844 29.1882 26.9855 29.2301C27.0866 29.272 27.1785 29.3334 27.2559 29.4108Z" fill="white"/>
</svg>
