<svg width="31" height="30" viewBox="0 0 31 30" fill="none" xmlns="http://www.w3.org/2000/svg">
<path d="M19.875 6.25C19.875 5.38471 19.6184 4.53885 19.1377 3.81938C18.6569 3.09992 17.9737 2.53916 17.1742 2.20803C16.3748 1.8769 15.4951 1.79026 14.6465 1.95907C13.7978 2.12788 13.0182 2.54456 12.4064 3.15641C11.7945 3.76826 11.3779 4.54781 11.209 5.39648C11.0402 6.24515 11.1269 7.12482 11.458 7.92424C11.7891 8.72367 12.3499 9.40695 13.0694 9.88768C13.7888 10.3684 14.6347 10.625 15.5 10.625C16.6599 10.6236 17.7719 10.1622 18.592 9.34204C19.4122 8.52188 19.8736 7.40989 19.875 6.25ZM12.375 6.25C12.375 5.63194 12.5583 5.02775 12.9016 4.51384C13.245 3.99994 13.7331 3.5994 14.3041 3.36288C14.8751 3.12635 15.5035 3.06447 16.1096 3.18505C16.7158 3.30563 17.2727 3.60325 17.7097 4.04029C18.1467 4.47733 18.4444 5.03415 18.5649 5.64034C18.6855 6.24654 18.6236 6.87487 18.3871 7.44589C18.1506 8.01691 17.75 8.50496 17.2361 8.84834C16.7222 9.19172 16.1181 9.375 15.5 9.375C14.6714 9.37424 13.877 9.04475 13.2911 8.45887C12.7052 7.87298 12.3758 7.07857 12.375 6.25ZM20.9419 22.0581C20.9999 22.1161 21.046 22.185 21.0774 22.2608C21.1088 22.3366 21.125 22.4179 21.125 22.5C21.125 22.582 21.1088 22.6633 21.0774 22.7391C21.046 22.8149 20.9999 22.8838 20.9419 22.9419L15.9419 27.9419C15.8839 27.9999 15.815 28.0459 15.7392 28.0773C15.6633 28.1088 15.5821 28.1249 15.5 28.1249C15.4179 28.1249 15.3367 28.1088 15.2609 28.0773C15.185 28.0459 15.1162 27.9999 15.0581 27.9419L10.0581 22.9419C9.94429 22.824 9.88129 22.6661 9.88271 22.5022C9.88414 22.3384 9.94987 22.1816 10.0657 22.0657C10.1816 21.9498 10.3384 21.8841 10.5023 21.8827C10.6661 21.8813 10.824 21.9443 10.9419 22.0581L14.875 25.9913V15C14.875 14.8342 14.9408 14.6753 15.058 14.5581C15.1753 14.4409 15.3342 14.375 15.5 14.375C15.6657 14.375 15.8247 14.4409 15.9419 14.5581C16.0591 14.6753 16.125 14.8342 16.125 15V25.9913L20.0581 22.0581C20.1161 22.0001 20.185 21.954 20.2608 21.9226C20.3366 21.8912 20.4179 21.875 20.5 21.875C20.5821 21.875 20.6633 21.8912 20.7391 21.9226C20.815 21.954 20.8839 22.0001 20.9419 22.0581Z" fill="#2148B8"/>
</svg>
