<svg width="14" height="14" viewBox="0 0 14 14" fill="none" xmlns="http://www.w3.org/2000/svg">
<path d="M12.9639 4.52625C12.9347 3.88757 12.8333 3.45142 12.685 3.06982C12.5344 2.66946 12.2982 2.30682 11.9929 2.00708C11.6933 1.70184 11.3305 1.46555 10.9302 1.31485C10.5485 1.16663 10.1124 1.06528 9.47375 1.03625C8.83389 1.00696 8.62946 1 7 1C5.37054 1 5.16611 1.00696 4.52625 1.03607C3.88757 1.06528 3.45151 1.16672 3.06982 1.31503C2.66946 1.46564 2.30682 1.70184 2.00708 2.00708C1.70184 2.30673 1.46555 2.66937 1.31485 3.06973C1.16663 3.45142 1.06528 3.88757 1.03625 4.52615C1.00696 5.16611 1 5.37045 1 6.99991C1 8.62946 1.00696 8.83389 1.03625 9.47375C1.06537 10.1123 1.16681 10.5485 1.31512 10.9302C1.46573 11.3304 1.70193 11.6932 2.00717 11.9928C2.30682 12.2981 2.66956 12.5343 3.06992 12.6849C3.45151 12.8333 3.88766 12.9346 4.52634 12.9638C5.16629 12.993 5.37064 12.9999 7.00009 12.9999C8.62955 12.9999 8.83398 12.993 9.47385 12.9638C10.1125 12.9346 10.5486 12.8333 10.9303 12.6849C11.7362 12.3732 12.3733 11.7361 12.685 10.9302C12.8334 10.5485 12.9347 10.1123 12.9639 9.47375C12.993 8.8338 13 8.62946 13 7C13 5.37045 12.993 5.16611 12.9639 4.52625ZM11.8839 9.42459C11.8572 10.0096 11.7595 10.3273 11.6773 10.5387C11.4755 11.062 11.0619 11.4756 10.5386 11.6774C10.3272 11.7596 10.0095 11.8573 9.4245 11.884C8.79196 11.9129 8.60217 11.9189 7 11.9189C5.39774 11.9189 5.20804 11.9129 4.57541 11.884C3.99048 11.8573 3.67279 11.7596 3.4613 11.6774C3.20074 11.5812 2.965 11.4279 2.77145 11.2285C2.57214 11.035 2.41879 10.7993 2.32257 10.5387C2.24045 10.3273 2.14267 10.0096 2.11603 9.42459C2.08719 8.79196 2.08105 8.60217 2.08105 7.00009C2.08105 5.39792 2.08719 5.20822 2.11603 4.5755C2.14276 3.99048 2.24045 3.67279 2.32257 3.4614C2.41879 3.20074 2.57224 2.965 2.77145 2.77145C2.965 2.57214 3.20074 2.41879 3.4614 2.32266C3.67279 2.24045 3.99048 2.14276 4.5755 2.11603C5.20813 2.08719 5.39792 2.08105 7 2.08105H6.99991C8.60199 2.08105 8.79178 2.08719 9.4245 2.11612C10.0095 2.14276 10.3271 2.24054 10.5386 2.32266C10.7992 2.41888 11.0349 2.57224 11.2285 2.77145C11.4278 2.965 11.5811 3.20074 11.6772 3.4614C11.7595 3.67279 11.8572 3.99048 11.8839 4.5755C11.9127 5.20813 11.9189 5.39792 11.9189 7C11.9189 8.60217 11.9128 8.79187 11.8839 9.42459Z" fill="white"/>
<path d="M7.00046 3.91942C5.29886 3.91942 3.91943 5.29893 3.91943 7.00053C3.91943 8.70213 5.29886 10.0816 7.00046 10.0816C8.70215 10.0816 10.0816 8.70213 10.0816 7.00053C10.0816 5.29893 8.70215 3.91942 7.00046 3.91942ZM7.00046 9.0005C5.89597 9.00041 5.00049 8.10503 5.00058 7.00044C5.00058 5.89595 5.89597 5.00047 7.00055 5.00047C8.10513 5.00056 9.00052 5.89595 9.00052 7.00044C9.00052 8.10503 8.10504 9.0005 7.00046 9.0005Z" fill="white"/>
<path d="M10.9237 3.79729C10.9237 4.1949 10.6013 4.51726 10.2037 4.51726C9.806 4.51726 9.48364 4.1949 9.48364 3.79729C9.48364 3.39958 9.806 3.07722 10.2037 3.07722C10.6013 3.07722 10.9237 3.39958 10.9237 3.79729Z" fill="white"/>
</svg>
