<svg width="14" height="14" viewBox="0 0 14 14" fill="none" xmlns="http://www.w3.org/2000/svg">
<path d="M12.8333 3.38333C12.3948 3.57356 11.9311 3.6993 11.4566 3.75667C11.9572 3.4576 12.3324 2.98712 12.5125 2.4325C12.042 2.71254 11.5271 2.90984 10.99 3.01583C10.6309 2.6265 10.1529 2.36734 9.63068 2.279C9.10851 2.19065 8.57178 2.27813 8.10467 2.52769C7.63756 2.77726 7.2665 3.17481 7.04968 3.65799C6.83286 4.14117 6.78255 4.68264 6.90663 5.1975C5.95546 5.14939 5.02505 4.90172 4.17584 4.47059C3.32663 4.03945 2.57762 3.43449 1.97746 2.695C1.76696 3.0626 1.65635 3.4789 1.65663 3.9025C1.65588 4.29589 1.75242 4.68336 1.93765 5.03041C2.12288 5.37747 2.39105 5.67333 2.71829 5.89167C2.33795 5.88132 1.96573 5.77926 1.63329 5.59417V5.62333C1.63614 6.17452 1.82929 6.7078 2.18006 7.13298C2.53083 7.55816 3.01769 7.84912 3.55829 7.95667C3.35019 8.02 3.13414 8.05339 2.91663 8.05583C2.76606 8.05407 2.61587 8.04042 2.46746 8.015C2.62141 8.48914 2.91932 8.9035 3.31975 9.20043C3.72018 9.49735 4.20321 9.66207 4.70163 9.67167C3.85999 10.3339 2.82089 10.6953 1.74996 10.6983C1.55497 10.699 1.36014 10.6873 1.16663 10.6633C2.26004 11.3693 3.53427 11.7441 4.83579 11.7425C5.73395 11.7518 6.62496 11.5821 7.45678 11.2432C8.2886 10.9043 9.04456 10.4031 9.6805 9.76879C10.3164 9.13448 10.8196 8.37981 11.1606 7.54886C11.5016 6.71791 11.6736 5.82734 11.6666 4.92917V4.62C12.1244 4.27864 12.5192 3.86016 12.8333 3.38333Z" fill="white"/>
</svg>
