<svg width="14" height="14" viewBox="0 0 14 14" fill="none" xmlns="http://www.w3.org/2000/svg">
<path d="M13.7115 3.56476C13.5502 2.95289 13.0773 2.47056 12.4777 2.3058C11.3821 2 6.99984 2 6.99984 2C6.99984 2 2.61774 2 1.5222 2.29421C0.934047 2.45879 0.449635 2.95298 0.288306 3.56476C0 4.68232 0 7 0 7C0 7 0 9.32936 0.288306 10.4352C0.449806 11.047 0.922512 11.5294 1.52228 11.6941C2.62928 12 7.00001 12 7.00001 12C7.00001 12 11.3821 12 12.4777 11.7058C13.0774 11.5411 13.5502 11.0588 13.7117 10.447C13.9999 9.32936 13.9999 7.01177 13.9999 7.01177C13.9999 7.01177 14.0115 4.68232 13.7115 3.56476ZM5.60463 9.14115V4.85885L9.2487 7L5.60463 9.14115Z" fill="white"/>
</svg>
